<svg xmlns="http://www.w3.org/2000/svg" viewBox="0 0 64 64" width="64" height="64" role="img" aria-labelledby="logo-title">
  <title id="logo-title">JSON Viewer Logo</title>
  <rect x="4" y="4" width="56" height="56" rx="14" fill="#18181b"/>
  <path d="M22,16 C18,16 16,18 16,22 L16,28 C16,30 14,32 14,32 C14,32 16,34 16,36 L16,42 C16,46 18,48 22,48" fill="none" stroke="#fafafa" stroke-width="3" stroke-linecap="round"/>
  <path d="M42,16 C46,16 48,18 48,22 L48,28 C48,30 50,32 50,32 C50,32 48,34 48,36 L48,42 C48,46 46,48 42,48" fill="none" stroke="#fafafa" stroke-width="3" stroke-linecap="round"/>
  <line x1="26" y1="26" x2="38" y2="26" stroke="#a1a1aa" stroke-width="2" stroke-linecap="round"/>
  <line x1="26" y1="32" x2="34" y2="32" stroke="#fafafa" stroke-width="2" stroke-linecap="round"/>
  <line x1="26" y1="38" x2="36" y2="38" stroke="#a1a1aa" stroke-width="2" stroke-linecap="round"/>
</svg>
